# xmcd CD database file generated by Grip 3.2.0
# 
# Track frame offsets:
#       150
#       14707
#       24950
#       38348
#       50172
#       58950
#       72597
#       85167
#       97028
#       104471
#       117096
#       130455
#       139721
#       147621
#       165064
#       173376
#       189195
#       203491
#       216873
# 
# Disc length: 3040 seconds
# 
# Revision: 1
# Processed by: cddbd v1.5.1PL2 Copyright (c) Steve Scherf et al.
# Submitted via: Grip 3.2.0
# 
DISCID=0a0bde13
DTITLE=Various Artist - 1. velký trampský zpěvník Sho - Širo
DYEAR=2005
DGENRE=Country
TTITLE0=Shorty a Joe
TTITLE1=Skalisté hory
TTITLE2=Slepička
TTITLE3=Snění
TTITLE4=Socha svobody
TTITLE5=Sosna
TTITLE6=Soumrak
TTITLE7=Srdce trempů
TTITLE8=Stáda spí
TTITLE9=Stará pacifická
TTITLE10=Stará píseň
TTITLE11=Stará řeka
TTITLE12=Stará stezka
TTITLE13=Starý koráb
TTITLE14=Starý šerif
TTITLE15=Svatojánské proudy
TTITLE16=Šanghaj
TTITLE17=Šilhavý Mariňák
TTITLE18=Širou rovinou
EXTD=Vložila Agina
EXTT0=
EXTT1=
EXTT2=
EXTT3=
EXTT4=
EXTT5=
EXTT6=
EXTT7=
EXTT8=
EXTT9=
EXTT10=
EXTT11=
EXTT12=
EXTT13=
EXTT14=
EXTT15=
EXTT16=
EXTT17=
EXTT18=
PLAYORDER=
